<svg width="100" height="100" viewBox="0 0 100 100" fill="none" xmlns="http://www.w3.org/2000/svg">
<path d="M21 54.4783H31.0601V67.8393L42.454 79H53.719L55.0869 77.6442L56.4699 78.9962H67.735L79 67.8355V45.5141H68.9399V32.1607L57.546 21H46.281L44.9131 22.352L43.5339 21H32.2688L21 32.1607V54.4821V54.4783ZM55.9622 76.777L64.9841 67.8393V45.5179H54.924V32.1607L50.5703 27.8964L56.6632 21.8748L67.7122 32.6379V45.5255V67.8848L57.3452 78.1328L55.9584 76.7807L55.9622 76.777ZM49.7101 28.7485L53.7001 32.6341V45.5217V67.881L50.2899 71.2515L46.2999 67.3659V45.5217V32.119L49.7101 28.7485ZM32.284 54.4783V32.119L42.651 21.871L44.0378 23.223L35.0159 32.1607V54.4821H45.076V67.8431L49.4297 72.1074L43.3368 78.129L32.2878 67.3659V54.4783H32.284Z" fill="black"/>
</svg>
