<svg width="1920" height="495" viewBox="0 0 1920 495" fill="none" xmlns="http://www.w3.org/2000/svg">
<path opacity="0.7" d="M231.596 11.5391L244.844 0H353.944L458.667 90.3945L562.241 0H671.342L684.699 11.5391L697.947 0H807.048L911.25 89.9453L1014.31 0H1123.41L1136.77 11.5391L1150.02 0H1259.12L1363.84 90.3945L1467.41 0H1576.51L1589.87 11.5391L1603.12 0H1712.22L1822.57 95.251V209.216H1920V399.717L1810.9 494.968H1701.8L1688.41 483.429L1675.16 495H1566.06L1461.32 404.589L1357.8 494.968H1248.7L1235.3 483.429L1222.05 495H1112.95L1008.73 405.038L905.727 494.968H796.626L783.231 483.429L769.983 495H660.883L556.143 404.59L452.623 494.968H343.522L330.128 483.429L316.88 495H207.779L97.4307 399.749V285.72H0V95.251L109.138 0H218.238L231.596 11.5391ZM286.385 58.8574L328.55 95.251V209.248H425.981V399.749L338.605 476.027L338.568 476.06L352 487.599L452.403 400.137V99.3232L345.395 7.46582L286.385 58.8574ZM739.488 58.8574L781.653 95.251V209.248H879.085V399.749L791.709 476.027L791.672 476.06L805.104 487.599L905.507 400.137V285.72H905.173V99.0361L798.497 7.46582L739.488 58.8574ZM1191.56 58.8574L1233.72 95.251V209.248H1331.15V399.749L1243.78 476.027L1243.74 476.06L1257.17 487.599L1357.58 400.137V99.3232L1250.57 7.46582L1191.56 58.8574ZM1644.66 58.8574L1686.83 95.251V209.248H1784.26V399.749L1696.88 476.027L1696.85 476.06L1710.28 487.599L1810.68 400.137V99.3232L1703.67 7.46582L1644.66 58.8574ZM109.284 94.8955V285.72H109.321V395.709L216.33 487.566L275.339 436.176L233.174 399.781V285.752H135.743V95.251L223.119 18.9727L209.688 7.43359L109.284 94.8955ZM562.388 94.8955V285.72H562.425V395.709L669.434 487.566L728.442 436.176L686.277 399.781V285.752H588.847V95.251L676.223 18.9727L662.791 7.43359L562.388 94.8955ZM1014.46 94.8955V209.216H1014.83V395.994L1121.5 487.566L1180.51 436.176L1138.35 399.781V285.752H1040.92V95.251L1128.29 18.9727L1114.86 7.43359L1014.46 94.8955ZM1467.56 94.8955V285.72H1467.6V395.709L1574.61 487.566L1633.62 436.176L1591.45 399.781V285.752H1494.02V95.251L1581.4 18.9727L1567.96 7.43359L1467.56 94.8955ZM245.027 94.8955V395.709L283.669 428.871L316.697 400.104V99.291L278.055 66.1289L245.027 94.8955ZM698.131 94.8955V395.709L736.772 428.871L769.801 400.104V99.291L731.158 66.1289L698.131 94.8955ZM1150.2 94.8955V395.709L1188.84 428.871L1221.87 400.104V99.291L1183.23 66.1289L1150.2 94.8955ZM1603.3 94.8955V395.709L1641.95 428.871L1674.97 400.104V99.291L1636.33 66.1289L1603.3 94.8955Z" fill="url(#paint0_linear_2195_1075)" fill-opacity="0.3"/>
<defs>
<linearGradient id="paint0_linear_2195_1075" x1="960" y1="-2.90959e-08" x2="951.24" y2="494.845" gradientUnits="userSpaceOnUse">
<stop stop-color="white"/>
<stop offset="1" stop-color="#999999" stop-opacity="0"/>
</linearGradient>
</defs>
</svg>
