<svg width="24" height="24" viewBox="0 0 24 24" fill="none" xmlns="http://www.w3.org/2000/svg">
<path d="M0 13.8535H4.16264V19.3826L8.8766 24H13.5385L14.1041 23.4396L14.6761 24H19.3381L24 19.3822V10.1465H19.8378V4.61784L15.1226 0H10.4606L9.89511 0.559972L9.32349 0H4.66154L0 4.61784V13.8535ZM14.4665 23.0802L18.1997 19.3822V10.1465H14.0374V4.61784L12.236 2.85305L14.7574 0.360997L19.3295 4.81437V10.1469V19.3992L15.0401 23.639L14.4661 23.0802H14.4665ZM11.8793 3.20552L13.5308 4.81397V10.1465H13.5304V19.3988L12.119 20.7937L10.468 19.1856V10.1465V4.60078L11.8793 3.20552ZM4.66926 13.8535V4.60078L8.95866 0.360997L9.53232 0.91975L5.79869 4.61784V13.8535H9.96134V19.3826L11.7623 21.1469L9.24102 23.6394L4.66886 19.1864V13.8539L4.66926 13.8535Z" fill="white"/>
</svg>
